<?xml version="1.0" encoding="utf-8"?>
<!-- Generator: Adobe Illustrator 21.0.0, SVG Export Plug-In . SVG Version: 6.00 Build 0)  -->
<svg version="1.1" id="Layer_1" xmlns="http://www.w3.org/2000/svg" xmlns:xlink="http://www.w3.org/1999/xlink" x="0px" y="0px"
	 viewBox="0 0 88.3 88.3" style="enable-background:new 0 0 88.3 88.3;" xml:space="preserve">
<path d="M44.2,88.3C19.8,88.3,0,68.5,0,44.2c0-10.7,3.9-20.6,10.3-28.3c0.1-0.2,0.2-0.3,0.4-0.4C18.7,6,30.8,0,44.2,0
	c24.3,0,44.2,19.8,44.2,44.2c0,10.6-3.8,20.3-10,28c-0.1,0.2-0.2,0.3-0.4,0.4C69.8,82.2,57.7,88.3,44.2,88.3z M40.3,84.1
	c1.3,0.1,2.6,0.2,3.9,0.2c11.9,0,22.6-5.2,30-13.5L60.7,48L40.3,84.1z M7.4,60.3C12.6,72,23.2,80.8,36.1,83.5l13.1-23.2H7.4z
	 M55.9,32l20.9,35.5c4.7-6.6,7.5-14.6,7.5-23.3c0-4.2-0.7-8.3-1.9-12.1H55.9z M37.1,56.3h14.3L58.3,44l-7.1-12H37.1L30,44.2
	L37.1,56.3z M5.9,56.3h26.6L11.7,20.5C6.9,27.2,4,35.3,4,44.2C4,48.4,4.7,52.5,5.9,56.3z M14.4,17.2l13.3,23l20.8-36
	C47.1,4.1,45.6,4,44.2,4C32.4,4,21.8,9.1,14.4,17.2z M52.4,28h28.5C75.8,16.4,65.4,7.7,52.8,4.9L39.4,28H52.4
	C52.4,28,52.4,28,52.4,28z"/>
<text transform="matrix(1 0 0 1 -5.849 109.152)" style="display:none;enable-background:new    ; font-family:'Arial-BoldMT'; font-size:5px;">Created by H Alberto Gongora</text>
<text transform="matrix(1 0 0 1 -5.849 114.152)" style="display:none;enable-background:new    ; font-family:'Arial-BoldMT'; font-size:5px;">from the Noun Project</text>
</svg>
